<svg xmlns="http://www.w3.org/2000/svg" viewBox="0 0 512 512">
  <defs>
    <linearGradient id="bg" x1="0%" y1="0%" x2="100%" y2="100%">
      <stop offset="0%" style="stop-color:#3b82f6"/>
      <stop offset="100%" style="stop-color:#1d4ed8"/>
    </linearGradient>
    <linearGradient id="card1" x1="0%" y1="0%" x2="100%" y2="100%">
      <stop offset="0%" style="stop-color:#fbbf24"/>
      <stop offset="100%" style="stop-color:#f59e0b"/>
    </linearGradient>
    <linearGradient id="card2" x1="0%" y1="0%" x2="100%" y2="100%">
      <stop offset="0%" style="stop-color:#34d399"/>
      <stop offset="100%" style="stop-color:#10b981"/>
    </linearGradient>
    <linearGradient id="card3" x1="0%" y1="0%" x2="100%" y2="100%">
      <stop offset="0%" style="stop-color:#a78bfa"/>
      <stop offset="100%" style="stop-color:#8b5cf6"/>
    </linearGradient>
  </defs>

  <!-- Background rounded square -->
  <rect x="32" y="32" width="448" height="448" rx="64" ry="64" fill="url(#bg)"/>

  <!-- Column 1 - Left -->
  <rect x="72" y="88" width="108" height="336" rx="12" ry="12" fill="rgba(255,255,255,0.15)"/>
  <!-- Card 1.1 (tall) -->
  <rect x="84" y="100" width="84" height="100" rx="8" ry="8" fill="url(#card1)"/>
  <!-- Lines on card -->
  <rect x="96" y="116" width="48" height="6" rx="3" fill="rgba(0,0,0,0.2)"/>
  <rect x="96" y="130" width="60" height="6" rx="3" fill="rgba(0,0,0,0.2)"/>
  <rect x="96" y="144" width="36" height="6" rx="3" fill="rgba(0,0,0,0.2)"/>
  <!-- Card 1.2 -->
  <rect x="84" y="212" width="84" height="72" rx="8" ry="8" fill="#ffffff"/>
  <rect x="96" y="228" width="48" height="6" rx="3" fill="rgba(0,0,0,0.15)"/>
  <rect x="96" y="242" width="60" height="6" rx="3" fill="rgba(0,0,0,0.15)"/>

  <!-- Column 2 - Middle -->
  <rect x="202" y="88" width="108" height="336" rx="12" ry="12" fill="rgba(255,255,255,0.15)"/>
  <!-- Card 2.1 -->
  <rect x="214" y="100" width="84" height="80" rx="8" ry="8" fill="url(#card2)"/>
  <rect x="226" y="116" width="48" height="6" rx="3" fill="rgba(0,0,0,0.2)"/>
  <rect x="226" y="130" width="60" height="6" rx="3" fill="rgba(0,0,0,0.2)"/>
  <!-- Card 2.2 -->
  <rect x="214" y="192" width="84" height="88" rx="8" ry="8" fill="#ffffff"/>
  <rect x="226" y="208" width="48" height="6" rx="3" fill="rgba(0,0,0,0.15)"/>
  <rect x="226" y="222" width="60" height="6" rx="3" fill="rgba(0,0,0,0.15)"/>
  <rect x="226" y="236" width="40" height="6" rx="3" fill="rgba(0,0,0,0.15)"/>
  <!-- Card 2.3 -->
  <rect x="214" y="292" width="84" height="64" rx="8" ry="8" fill="url(#card3)"/>
  <rect x="226" y="308" width="48" height="6" rx="3" fill="rgba(0,0,0,0.2)"/>
  <rect x="226" y="322" width="36" height="6" rx="3" fill="rgba(0,0,0,0.2)"/>

  <!-- Column 3 - Right -->
  <rect x="332" y="88" width="108" height="336" rx="12" ry="12" fill="rgba(255,255,255,0.15)"/>
  <!-- Card 3.1 -->
  <rect x="344" y="100" width="84" height="68" rx="8" ry="8" fill="#ffffff"/>
  <rect x="356" y="116" width="48" height="6" rx="3" fill="rgba(0,0,0,0.15)"/>
  <rect x="356" y="130" width="36" height="6" rx="3" fill="rgba(0,0,0,0.15)"/>
  <!-- Card 3.2 (done - with checkmark styling) -->
  <rect x="344" y="180" width="84" height="76" rx="8" ry="8" fill="url(#card2)"/>
  <rect x="356" y="196" width="48" height="6" rx="3" fill="rgba(0,0,0,0.2)"/>
  <rect x="356" y="210" width="60" height="6" rx="3" fill="rgba(0,0,0,0.2)"/>
  <!-- Checkmark -->
  <path d="M394 230 L404 240 L420 220" stroke="white" stroke-width="6" stroke-linecap="round" stroke-linejoin="round" fill="none"/>
</svg>
